<svg width="196" height="38" viewBox="0 0 196 38" fill="none" xmlns="http://www.w3.org/2000/svg">
    <path
        d="M81.75 28.175C80.5333 28.175 79.4333 27.9667 78.45 27.55C77.4833 27.1333 76.7167 26.5333 76.15 25.75C75.5833 24.9667 75.2917 24.0417 75.275 22.975H79.025C79.075 23.6917 79.325 24.2583 79.775 24.675C80.2417 25.0917 80.875 25.3 81.675 25.3C82.4917 25.3 83.1333 25.1083 83.6 24.725C84.0667 24.325 84.3 23.8083 84.3 23.175C84.3 22.6583 84.1417 22.2333 83.825 21.9C83.5083 21.5667 83.1083 21.3083 82.625 21.125C82.1583 20.925 81.5083 20.7083 80.675 20.475C79.5417 20.1417 78.6167 19.8167 77.9 19.5C77.2 19.1667 76.5917 18.675 76.075 18.025C75.575 17.3583 75.325 16.475 75.325 15.375C75.325 14.3417 75.5833 13.4417 76.1 12.675C76.6167 11.9083 77.3417 11.325 78.275 10.925C79.2083 10.5083 80.275 10.3 81.475 10.3C83.275 10.3 84.7333 10.7417 85.85 11.625C86.9833 12.4917 87.6083 13.7083 87.725 15.275H83.875C83.8417 14.675 83.5833 14.1833 83.1 13.8C82.6333 13.4 82.0083 13.2 81.225 13.2C80.5417 13.2 79.9917 13.375 79.575 13.725C79.175 14.075 78.975 14.5833 78.975 15.25C78.975 15.7167 79.125 16.1083 79.425 16.425C79.7417 16.725 80.125 16.975 80.575 17.175C81.0417 17.3583 81.6917 17.575 82.525 17.825C83.6583 18.1583 84.5833 18.4917 85.3 18.825C86.0167 19.1583 86.6333 19.6583 87.15 20.325C87.6667 20.9917 87.925 21.8667 87.925 22.95C87.925 23.8833 87.6833 24.75 87.2 25.55C86.7167 26.35 86.0083 26.9917 85.075 27.475C84.1417 27.9417 83.0333 28.175 81.75 28.175ZM93.9594 16.15C94.4094 15.5167 95.026 14.9917 95.8094 14.575C96.6094 14.1417 97.5177 13.925 98.5344 13.925C99.7177 13.925 100.784 14.2167 101.734 14.8C102.701 15.3833 103.459 16.2167 104.009 17.3C104.576 18.3667 104.859 19.6083 104.859 21.025C104.859 22.4417 104.576 23.7 104.009 24.8C103.459 25.8833 102.701 26.725 101.734 27.325C100.784 27.925 99.7177 28.225 98.5344 28.225C97.5177 28.225 96.6177 28.0167 95.8344 27.6C95.0677 27.1833 94.4427 26.6583 93.9594 26.025V34.6H90.4594V14.15H93.9594V16.15ZM101.284 21.025C101.284 20.1917 101.109 19.475 100.759 18.875C100.426 18.2583 99.976 17.7917 99.4094 17.475C98.8594 17.1583 98.2594 17 97.6094 17C96.976 17 96.376 17.1667 95.8094 17.5C95.2594 17.8167 94.8094 18.2833 94.4594 18.9C94.126 19.5167 93.9594 20.2417 93.9594 21.075C93.9594 21.9083 94.126 22.6333 94.4594 23.25C94.8094 23.8667 95.2594 24.3417 95.8094 24.675C96.376 24.9917 96.976 25.15 97.6094 25.15C98.2594 25.15 98.8594 24.9833 99.4094 24.65C99.976 24.3167 100.426 23.8417 100.759 23.225C101.109 22.6083 101.284 21.875 101.284 21.025ZM119.778 20.775C119.778 21.275 119.744 21.725 119.678 22.125H109.553C109.636 23.125 109.986 23.9083 110.603 24.475C111.219 25.0417 111.978 25.325 112.878 25.325C114.178 25.325 115.103 24.7667 115.653 23.65H119.428C119.028 24.9833 118.261 26.0833 117.128 26.95C115.994 27.8 114.603 28.225 112.953 28.225C111.619 28.225 110.419 27.9333 109.353 27.35C108.303 26.75 107.478 25.9083 106.878 24.825C106.294 23.7417 106.003 22.4917 106.003 21.075C106.003 19.6417 106.294 18.3833 106.878 17.3C107.461 16.2167 108.278 15.3833 109.328 14.8C110.378 14.2167 111.586 13.925 112.953 13.925C114.269 13.925 115.444 14.2083 116.478 14.775C117.528 15.3417 118.336 16.15 118.903 17.2C119.486 18.2333 119.778 19.425 119.778 20.775ZM116.153 19.775C116.136 18.875 115.811 18.1583 115.178 17.625C114.544 17.075 113.769 16.8 112.853 16.8C111.986 16.8 111.253 17.0667 110.653 17.6C110.069 18.1167 109.711 18.8417 109.578 19.775H116.153ZM134.707 20.775C134.707 21.275 134.674 21.725 134.607 22.125H124.482C124.566 23.125 124.916 23.9083 125.532 24.475C126.149 25.0417 126.907 25.325 127.807 25.325C129.107 25.325 130.032 24.7667 130.582 23.65H134.357C133.957 24.9833 133.191 26.0833 132.057 26.95C130.924 27.8 129.532 28.225 127.882 28.225C126.549 28.225 125.349 27.9333 124.282 27.35C123.232 26.75 122.407 25.9083 121.807 24.825C121.224 23.7417 120.932 22.4917 120.932 21.075C120.932 19.6417 121.224 18.3833 121.807 17.3C122.391 16.2167 123.207 15.3833 124.257 14.8C125.307 14.2167 126.516 13.925 127.882 13.925C129.199 13.925 130.374 14.2083 131.407 14.775C132.457 15.3417 133.266 16.15 133.832 17.2C134.416 18.2333 134.707 19.425 134.707 20.775ZM131.082 19.775C131.066 18.875 130.741 18.1583 130.107 17.625C129.474 17.075 128.699 16.8 127.782 16.8C126.916 16.8 126.182 17.0667 125.582 17.6C124.999 18.1167 124.641 18.8417 124.507 19.775H131.082ZM135.862 21.075C135.862 19.6417 136.154 18.3917 136.737 17.325C137.32 16.2417 138.129 15.4083 139.162 14.825C140.195 14.225 141.379 13.925 142.712 13.925C144.429 13.925 145.845 14.3583 146.962 15.225C148.095 16.075 148.854 17.275 149.237 18.825H145.462C145.262 18.225 144.92 17.7583 144.437 17.425C143.97 17.075 143.387 16.9 142.687 16.9C141.687 16.9 140.895 17.2667 140.312 18C139.729 18.7167 139.437 19.7417 139.437 21.075C139.437 22.3917 139.729 23.4167 140.312 24.15C140.895 24.8667 141.687 25.225 142.687 25.225C144.104 25.225 145.029 24.5917 145.462 23.325H149.237C148.854 24.825 148.095 26.0167 146.962 26.9C145.829 27.7833 144.412 28.225 142.712 28.225C141.379 28.225 140.195 27.9333 139.162 27.35C138.129 26.75 137.32 25.9167 136.737 24.85C136.154 23.7667 135.862 22.5083 135.862 21.075ZM159.101 13.95C160.151 13.95 161.085 14.1833 161.901 14.65C162.718 15.1 163.351 15.775 163.801 16.675C164.268 17.5583 164.501 18.625 164.501 19.875V28H161.001V20.35C161.001 19.25 160.726 18.4083 160.176 17.825C159.626 17.225 158.876 16.925 157.926 16.925C156.96 16.925 156.193 17.225 155.626 17.825C155.076 18.4083 154.801 19.25 154.801 20.35V28H151.301V9.5H154.801V15.875C155.251 15.275 155.851 14.8083 156.601 14.475C157.351 14.125 158.185 13.95 159.101 13.95ZM169.104 12.5C168.488 12.5 167.971 12.3083 167.554 11.925C167.154 11.525 166.954 11.0333 166.954 10.45C166.954 9.86667 167.154 9.38333 167.554 9C167.971 8.6 168.488 8.4 169.104 8.4C169.721 8.4 170.229 8.6 170.629 9C171.046 9.38333 171.254 9.86667 171.254 10.45C171.254 11.0333 171.046 11.525 170.629 11.925C170.229 12.3083 169.721 12.5 169.104 12.5ZM170.829 14.15V28H167.329V14.15H170.829ZM180.138 17.025H177.713V28H174.163V17.025H172.588V14.15H174.163V13.45C174.163 11.75 174.646 10.5 175.613 9.7C176.579 8.9 178.038 8.525 179.988 8.575V11.525C179.138 11.5083 178.546 11.65 178.213 11.95C177.879 12.25 177.713 12.7917 177.713 13.575V14.15H180.138V17.025ZM195.156 14.15L186.581 34.55H182.856L185.856 27.65L180.306 14.15H184.231L187.806 23.825L191.431 14.15H195.156Z"
        fill="white" fill-opacity="0.8" />
    <path fill-rule="evenodd" clip-rule="evenodd"
        d="M13.4227 13.5308L15.0054 11.4129C15.7229 10.4528 16.9028 10.0015 18.0467 10.2497C18.9325 10.4418 19.5008 11.345 19.3163 12.267C19.3009 12.3432 19.2806 12.4184 19.2556 12.4918C17.9408 16.3299 17.5222 18.8652 17.9999 20.0972C19.9665 17.6648 30.0129 1.80449 33.1882 1.05163C34.2482 0.800264 35.3034 1.49105 35.5449 2.59457C35.6266 2.96791 35.6061 3.3576 35.486 3.71949C32.4856 12.7498 31.2154 18.2102 31.6753 20.1004C33.2598 17.7795 35.6133 14.6558 38.7362 10.7292C39.909 9.25422 41.7803 8.59325 43.5733 9.02056C45.15 9.3963 46.1354 11.0314 45.7747 12.6726C45.7724 12.6834 45.7702 12.6942 45.7673 12.705C44.6809 17.4093 44.2781 20.1615 44.5591 20.9619C44.6832 20.8636 44.8092 20.7628 44.9371 20.6595C46.3692 19.5023 48.1624 18.9384 49.9705 19.0766L64 20.1482L54.7051 21.2484C52.1101 21.5556 49.7334 22.9071 48.0832 25.0141L45.8588 27.8539C45.1307 28.7837 44.0119 29.2842 42.8628 29.194C41.7208 29.1046 40.7771 28.2328 40.5558 27.0636C40.0128 24.1916 39.9256 20.8017 40.2951 16.8938C37.504 21.2347 35.0825 27.4777 33.0301 35.6229C32.6773 37.0235 31.4613 38 30.0705 38C28.7421 38 27.6542 36.9018 27.6132 35.5196L26.9982 14.6922L21.0499 26.8948C20.4307 28.1647 19.0686 28.8423 17.7304 28.5461C16.3128 28.2322 15.14 27.201 14.6059 25.7985L13.9394 24.0481C12.9962 21.5714 10.8675 19.7965 8.33964 19.3793C5.55977 18.9205 2.77987 18.4616 0 18.0028L6.19206 17.5471C9.04067 17.3372 11.6694 15.8772 13.4227 13.5308Z"
        fill="white" />
</svg>