<svg width="64" height="37" viewBox="0 0 64 37" fill="none" xmlns="http://www.w3.org/2000/svg">
<path fill-rule="evenodd" clip-rule="evenodd" d="M13.4227 12.5308L15.0054 10.4129C15.7229 9.45277 16.9028 9.00151 18.0467 9.24968C18.9325 9.44181 19.5008 10.345 19.3163 11.267C19.3009 11.3432 19.2806 11.4184 19.2556 11.4918C17.9408 15.3299 17.5222 17.8652 17.9999 19.0972C19.9665 16.6648 30.0129 0.804488 33.1882 0.0516329C34.2482 -0.199736 35.3034 0.491047 35.5449 1.59457C35.6266 1.96791 35.6061 2.3576 35.486 2.71949C32.4856 11.7498 31.2154 17.2102 31.6753 19.1004C33.2598 16.7795 35.6133 13.6558 38.7362 9.72916C39.909 8.25422 41.7803 7.59325 43.5733 8.02056C45.15 8.3963 46.1354 10.0314 45.7747 11.6726C45.7724 11.6834 45.7702 11.6942 45.7673 11.705C44.6809 16.4093 44.2781 19.1615 44.5591 19.9619C44.6832 19.8636 44.8092 19.7628 44.9371 19.6595C46.3692 18.5023 48.1624 17.9384 49.9705 18.0766L64 19.1482L54.7051 20.2484C52.1101 20.5556 49.7334 21.9071 48.0832 24.0141L45.8588 26.8539C45.1307 27.7837 44.0119 28.2842 42.8628 28.194C41.7208 28.1046 40.7771 27.2328 40.5558 26.0636C40.0128 23.1916 39.9256 19.8017 40.2951 15.8938C37.504 20.2347 35.0825 26.4777 33.0301 34.6229C32.6773 36.0235 31.4613 37 30.0705 37C28.7421 37 27.6542 35.9018 27.6132 34.5196L26.9982 13.6922L21.0499 25.8948C20.4307 27.1647 19.0686 27.8423 17.7304 27.5461C16.3128 27.2322 15.14 26.201 14.6059 24.7985L13.9394 23.0481C12.9962 20.5714 10.8675 18.7965 8.33964 18.3793C5.55977 17.9205 2.77987 17.4616 0 17.0028L6.19206 16.5471C9.04067 16.3372 11.6694 14.8772 13.4227 12.5308Z" fill="url(#paint0_linear_264_8)"/>
<defs>
<linearGradient id="paint0_linear_264_8" x1="0.00019767" y1="18.5" x2="64.0002" y2="18.5" gradientUnits="userSpaceOnUse">
<stop stop-color="#2137FC"/>
<stop offset="1" stop-color="#9644FF"/>
</linearGradient>
</defs>
</svg>
